<?xml version="1.0" standalone="no"?>
<!DOCTYPE svg PUBLIC "-//W3C//DTD SVG 20010904//EN"
 "http://www.w3.org/TR/2001/REC-SVG-20010904/DTD/svg10.dtd">
<svg version="1.0" xmlns="http://www.w3.org/2000/svg"
 width="517.000000pt" height="292.000000pt" viewBox="0 0 517.000000 292.000000"
 preserveAspectRatio="xMidYMid meet">

<g transform="translate(0.000000,292.000000) scale(0.100000,-0.100000)"
fill="#000000" stroke="none">
<path d="M2683 2303 c15 -2 39 -2 55 0 15 2 2 4 -28 4 -30 0 -43 -2 -27 -4z"/>
<path d="M2848 2293 c12 -2 30 -2 40 0 9 3 -1 5 -23 4 -22 0 -30 -2 -17 -4z"/>
<path d="M2943 2283 c9 -2 25 -2 35 0 9 3 1 5 -18 5 -19 0 -27 -2 -17 -5z"/>
<path d="M3023 2273 c9 -2 23 -2 30 0 6 3 -1 5 -18 5 -16 0 -22 -2 -12 -5z"/>
<path d="M3083 2263 c9 -2 23 -2 30 0 6 3 -1 5 -18 5 -16 0 -22 -2 -12 -5z"/>
<path d="M3138 2253 c6 -2 18 -2 25 0 6 3 1 5 -13 5 -14 0 -19 -2 -12 -5z"/>
<path d="M3269 2224 c401 -101 708 -279 841 -486 54 -83 81 -160 87 -248 21
-303 -257 -579 -743 -739 -783 -257 -1844 -117 -2294 302 l-65 61 55 -58 c188
-197 569 -355 1025 -423 187 -28 660 -25 850 5 724 113 1185 433 1185 821 0
90 -16 154 -58 236 -117 227 -418 418 -826 524 -65 17 -126 31 -135 30 -9 0
26 -11 78 -25z"/>
<path d="M2345 2234 c-16 -2 -73 -9 -125 -15 -235 -26 -515 -103 -705 -193
-240 -114 -410 -271 -466 -433 -26 -76 -26 -194 1 -270 57 -163 233 -326 473
-438 681 -318 1756 -268 2317 108 342 229 400 554 146 812 -198 201 -529 340
-976 410 -100 16 -588 30 -665 19z m610 -58 c450 -60 793 -203 997 -414 188
-194 189 -404 3 -601 -176 -186 -499 -331 -880 -395 -320 -54 -735 -48 -1051
14 -448 88 -796 284 -909 513 -46 92 -54 165 -31 257 22 85 55 140 135 223
121 126 290 222 534 302 182 60 340 90 632 119 81 8 463 -4 570 -18z"/>
<path d="M2368 2150 c-603 -47 -1087 -264 -1221 -547 -27 -58 -32 -79 -32
-144 0 -67 4 -83 38 -151 130 -264 581 -471 1151 -529 156 -15 563 -7 706 16
441 68 801 233 955 438 64 84 85 142 85 233 0 62 -5 81 -36 144 -127 253 -548
461 -1065 525 -153 19 -438 26 -581 15z m-424 -228 c-7 -4 -36 -72 -66 -152
l-54 -145 63 3 63 4 -14 -39 -13 -38 -118 -3 c-109 -2 -117 -1 -110 15 37 90
118 321 119 339 1 23 5 24 71 24 39 0 65 -4 59 -8z m374 -155 c1 -89 5 -177 8
-194 l5 -33 -56 0 c-54 0 -55 0 -55 30 l0 30 -65 0 c-59 0 -65 -2 -78 -26 -12
-23 -20 -26 -68 -28 l-55 -1 123 182 c68 101 123 187 123 193 0 6 25 10 58 10
l57 0 3 -163z m297 95 c3 -37 10 -83 13 -101 7 -33 8 -32 37 50 16 46 28 92
28 101 -2 15 7 18 58 18 59 0 59 0 45 -22 -8 -13 -40 -95 -71 -183 -32 -88
-62 -166 -67 -172 -6 -7 -30 -13 -53 -13 -50 0 -50 1 -61 123 -4 42 -10 77
-13 77 -4 0 -23 -45 -41 -100 l-35 -100 -49 0 c-42 0 -47 2 -41 18 30 72 125
345 125 357 0 12 13 15 59 15 l59 0 7 -68z m479 44 c45 -29 61 -79 48 -155
-15 -87 -51 -138 -122 -173 -47 -23 -71 -27 -167 -30 l-112 -4 15 27 c28 56
124 334 119 348 -8 22 183 11 219 -13z m406 -133 c-1 -5 -9 -23 -18 -42 -16
-31 -28 -37 -142 -77 -137 -48 -143 -49 -138 -32 2 6 47 26 99 44 l94 32 -82
1 c-61 1 -81 4 -78 14 2 6 9 24 14 40 l11 27 120 0 c66 0 120 -3 120 -7z
m-959 -326 c84 -56 76 -221 -15 -312 -103 -103 -267 -75 -290 50 -18 92 43
220 123 262 60 31 136 31 182 0z m-344 -21 c46 -53 15 -141 -63 -181 -21 -11
-41 -21 -43 -22 -2 -2 14 -34 37 -73 l40 -70 -61 0 -62 1 -29 64 c-16 36 -32
65 -36 65 -10 0 -40 -86 -40 -112 0 -15 -9 -18 -61 -18 -54 0 -60 2 -54 18 27
63 125 336 125 349 0 12 17 14 111 11 108 -3 111 -4 136 -32z m555 -83 l-3
-118 56 80 c31 44 66 97 78 117 22 37 23 38 86 38 61 0 63 -1 43 -17 -23 -21
-250 -326 -258 -348 -4 -11 -21 -15 -58 -15 l-51 0 0 190 0 190 55 0 55 0 -3
-117z m542 95 c-14 -49 -20 -52 -85 -53 -63 0 -64 -1 -80 -35 l-17 -35 55 -3
c44 -2 54 -6 49 -18 -3 -9 -9 -27 -12 -40 -6 -22 -11 -24 -64 -24 -56 0 -58
-1 -69 -31 -6 -18 -11 -34 -11 -35 0 -2 31 -4 69 -4 l69 0 -15 -40 -16 -40
-125 0 c-114 0 -124 1 -117 18 48 117 125 330 125 344 0 16 12 18 126 18 l125
0 -7 -22z m302 -11 c27 -32 31 -72 11 -120 -17 -39 -36 -55 -82 -71 l-34 -12
39 -68 c22 -38 40 -70 40 -72 0 -2 -29 -4 -65 -4 -45 0 -65 4 -65 13 0 6 -13
39 -28 72 l-29 60 -23 -72 -24 -73 -59 0 c-46 0 -57 3 -50 13 16 20 123 322
123 346 0 22 2 23 111 19 107 -3 112 -4 135 -31z m-1794 -29 c-7 -7 -52 -27
-100 -45 l-87 -32 82 0 81 -1 -15 -40 -16 -40 -119 0 c-65 0 -118 3 -117 8 0
4 6 22 13 41 12 33 18 37 137 77 135 46 161 52 141 32z"/>
<path d="M2181 1742 c-17 -27 -31 -52 -31 -55 0 -4 16 -7 35 -7 l35 0 0 55 c0
30 -2 55 -4 55 -2 0 -18 -22 -35 -48z"/>
<path d="M2965 1841 c-6 -11 -75 -199 -75 -206 0 -14 61 -2 84 16 59 47 89
166 47 189 -24 13 -48 13 -56 1z"/>
<path d="M2414 1380 c-29 -12 -54 -53 -66 -113 -15 -73 0 -107 45 -107 40 0
63 22 83 77 20 57 18 109 -6 133 -22 22 -25 23 -56 10z"/>
<path d="M2022 1347 c-19 -53 -16 -60 20 -53 43 9 60 25 56 55 -2 21 -9 27
-33 29 -27 3 -32 -1 -43 -31z"/>
<path d="M3431 1358 c-21 -57 -22 -68 -8 -68 31 0 77 23 82 41 15 45 -57 71
-74 27z"/>
</g>
</svg>
